<svg width="285" height="60" viewBox="0 0 285 60" fill="none" xmlns="http://www.w3.org/2000/svg">
<g clip-path="url(#clip0_853_219)">
<path d="M278.898 8.40873V9.78568H277.333V13.975H275.846V9.78568H274.281V8.40873H278.898Z" fill="#22223B"/>
<path d="M285 8.32526V14H283.514V11.2461L282.425 12.5396H281.98L280.891 11.2461V14H279.405V8.32526H279.93L282.202 10.7454L284.475 8.32526H285Z" fill="#22223B"/>
<path fill-rule="evenodd" clip-rule="evenodd" d="M19.657 36.7862L19.6395 50.5673L22.553 50.5711L22.5705 36.7257L27.8854 49.5102L30.5756 48.392L25.2974 35.6953L35.0085 45.4303L37.0712 43.3731L27.3185 33.5962L40.0741 38.8891L41.1904 36.1987L28.4336 30.9048H42.2456V27.9916H28.4667L41.2025 22.7323L40.0901 20.0396L27.4089 25.2765L37.1601 15.6258L35.1109 13.5553L25.2384 23.3257L30.5586 10.4957L27.8671 9.3799L22.5891 22.1087L22.6066 8.32925L19.6931 8.32556L19.6755 22.172L14.3602 9.38617L11.6699 10.5044L16.9477 23.2L7.23725 13.4658L5.1745 15.5232L14.9276 25.3001L2.17186 20.0068L1.05507 22.6975L13.8127 27.9916H0V30.9048H13.7799L1.04366 36.1644L2.15579 38.8571L14.8365 33.6204L5.08544 43.2706L7.13499 45.3414L17.0068 35.5714L11.6871 48.4008L14.3784 49.5165L19.657 36.7862Z" fill="#FFE3C2"/>
<path d="M70.8565 35.573C70.514 35.8013 70.0955 36.0201 69.6008 36.2294C69.1251 36.4197 68.6114 36.5909 68.0596 36.7431C67.5078 36.8954 66.937 37.0095 66.3472 37.0856C65.7764 37.1808 65.2341 37.2283 64.7204 37.2283C63.1222 37.2283 61.6761 36.9715 60.3823 36.4577C59.1075 35.925 58.0135 35.202 57.1002 34.2887C56.1869 33.3564 55.4829 32.2814 54.9882 31.0637C54.5125 29.8269 54.2747 28.495 54.2747 27.068C54.2747 25.5269 54.5411 24.1094 55.0738 22.8156C55.6256 21.5217 56.3772 20.4087 57.3285 19.4764C58.2798 18.525 59.3834 17.7925 60.6392 17.2788C61.8949 16.7651 63.2268 16.5082 64.6348 16.5082C65.7003 16.5082 66.6992 16.6414 67.6315 16.9078C68.5828 17.1741 69.439 17.5356 70.2001 17.9923L69.6864 19.248C69.2488 18.9817 68.7541 18.7534 68.2023 18.5631C67.6505 18.3538 67.0797 18.1921 66.4899 18.0779C65.9191 17.9637 65.3483 17.9067 64.7775 17.9067C63.4837 17.9067 62.285 18.135 61.1814 18.5916C60.0779 19.0483 59.117 19.6857 58.2989 20.5038C57.4807 21.322 56.8433 22.2828 56.3867 23.3864C55.93 24.4899 55.7017 25.6886 55.7017 26.9824C55.7017 28.2382 55.911 29.4083 56.3296 30.4929C56.7672 31.5584 57.3761 32.5002 58.1562 33.3183C58.9553 34.1175 59.9066 34.7453 61.0102 35.202C62.1137 35.6396 63.341 35.8584 64.6919 35.8584C65.491 35.8584 66.3282 35.7633 67.2034 35.573C68.0786 35.3827 68.8302 35.1068 69.4581 34.7453V29.1229H64.8916V27.7815H70.8565V35.573ZM76.7133 37V16.7365H81.7078C83.6676 16.7365 85.3324 17.0505 86.7023 17.6783C88.0913 18.2872 89.2139 19.0958 90.0701 20.1043C90.9263 21.1127 91.5541 22.2162 91.9537 23.4149C92.3533 24.6136 92.553 25.8028 92.553 26.9824C92.553 28.5236 92.2867 29.9125 91.7539 31.1493C91.2212 32.367 90.4886 33.4135 89.5563 34.2887C88.643 35.1639 87.5966 35.8394 86.4169 36.315C85.2373 36.7717 83.991 37 82.6782 37H76.7133ZM78.1117 35.6586H82.3071C83.5249 35.6586 84.6665 35.4588 85.732 35.0593C86.7975 34.6597 87.7298 34.0794 88.5289 33.3183C89.347 32.5573 89.9844 31.644 90.4411 30.5785C90.8977 29.494 91.126 28.2667 91.126 26.8968C91.126 25.7362 90.9263 24.6326 90.5267 23.5861C90.1462 22.5206 89.5658 21.5788 88.7857 20.7607C88.0057 19.9425 87.0448 19.2956 85.9032 18.8199C84.7616 18.3443 83.4297 18.1064 81.9076 18.1064H78.1117V35.6586ZM121.035 35.6586C120.598 35.925 120.093 36.1819 119.523 36.4292C118.952 36.6766 118.324 36.8668 117.639 37C116.954 37.1522 116.212 37.2283 115.413 37.2283C113.872 37.2283 112.473 36.962 111.217 36.4292C109.962 35.8774 108.887 35.1354 107.992 34.2031C107.098 33.2517 106.404 32.1672 105.909 30.9495C105.433 29.7128 105.195 28.3999 105.195 27.011C105.195 25.5269 105.452 24.1474 105.966 22.8726C106.48 21.5979 107.203 20.4848 108.135 19.5334C109.067 18.5821 110.152 17.8401 111.389 17.3073C112.625 16.7746 113.967 16.5082 115.413 16.5082C116.478 16.5082 117.477 16.6509 118.41 16.9363C119.342 17.2217 120.189 17.5927 120.95 18.0494L120.35 19.3337C119.684 18.9151 118.933 18.5631 118.096 18.2777C117.258 17.9923 116.374 17.8496 115.441 17.8496C114.243 17.8496 113.111 18.0874 112.045 18.5631C110.98 19.0197 110.038 19.6666 109.22 20.5038C108.42 21.322 107.793 22.2828 107.336 23.3864C106.879 24.4899 106.651 25.6791 106.651 26.9539C106.651 28.1716 106.851 29.3227 107.25 30.4072C107.669 31.4918 108.259 32.4431 109.02 33.2613C109.8 34.0794 110.732 34.7263 111.817 35.202C112.901 35.6586 114.109 35.8869 115.441 35.8869C116.431 35.8869 117.335 35.7538 118.153 35.4874C118.99 35.202 119.732 34.85 120.379 34.4314L121.035 35.6586ZM124.928 26.8968C124.928 25.4698 125.195 24.1379 125.727 22.9012C126.26 21.6454 127.002 20.5419 127.954 19.5905C128.905 18.6202 129.999 17.8686 131.236 17.3359C132.491 16.7841 133.833 16.5082 135.26 16.5082C136.687 16.5082 138.028 16.7841 139.284 17.3359C140.54 17.8686 141.643 18.6202 142.595 19.5905C143.546 20.5419 144.288 21.6454 144.821 22.9012C145.373 24.1379 145.648 25.4698 145.648 26.8968C145.648 28.3238 145.373 29.6652 144.821 30.921C144.288 32.1577 143.546 33.2517 142.595 34.2031C141.643 35.1544 140.54 35.8965 139.284 36.4292C138.028 36.962 136.687 37.2283 135.26 37.2283C133.833 37.2283 132.491 36.9715 131.236 36.4577C129.999 35.944 128.905 35.221 127.954 34.2887C127.002 33.3564 126.26 32.2623 125.727 31.0066C125.195 29.7508 124.928 28.3809 124.928 26.8968ZM126.355 26.9253C126.355 28.1621 126.584 29.3227 127.04 30.4072C127.497 31.4918 128.134 32.4431 128.952 33.2613C129.771 34.0794 130.712 34.7263 131.778 35.202C132.862 35.6586 134.014 35.8869 135.231 35.8869C136.487 35.8869 137.657 35.6586 138.742 35.202C139.826 34.7263 140.778 34.0794 141.596 33.2613C142.414 32.4431 143.051 31.4918 143.508 30.4072C143.984 29.3227 144.221 28.1526 144.221 26.8968C144.221 25.6601 143.984 24.4994 143.508 23.4149C143.051 22.3114 142.414 21.3505 141.596 20.5324C140.778 19.6952 139.826 19.0388 138.742 18.5631C137.657 18.0874 136.497 17.8496 135.26 17.8496C134.004 17.8496 132.834 18.0969 131.749 18.5916C130.665 19.0673 129.713 19.7237 128.895 20.5609C128.096 21.3981 127.468 22.3684 127.012 23.472C126.574 24.5565 126.355 25.7076 126.355 26.9253ZM160.955 19.0197C160.365 18.7343 159.642 18.4679 158.786 18.2206C157.929 17.9733 157.073 17.8496 156.217 17.8496C154.885 17.8496 153.82 18.1825 153.02 18.8485C152.221 19.5144 151.822 20.3516 151.822 21.36C151.822 22.1211 152.05 22.7585 152.507 23.2722C152.963 23.7669 153.563 24.195 154.305 24.5565C155.047 24.899 155.836 25.232 156.674 25.5554C157.34 25.8028 157.996 26.0787 158.643 26.3831C159.309 26.6875 159.908 27.0585 160.441 27.4961C160.974 27.9338 161.392 28.476 161.697 29.1229C162.02 29.7698 162.182 30.569 162.182 31.5203C162.182 32.6429 161.915 33.6418 161.383 34.517C160.85 35.3732 160.108 36.0392 159.157 36.5148C158.205 36.9905 157.102 37.2283 155.846 37.2283C154.837 37.2283 153.915 37.1047 153.078 36.8573C152.259 36.61 151.536 36.3246 150.908 36.0011C150.3 35.6586 149.814 35.3732 149.453 35.1449L150.109 34.0033C150.528 34.3077 151.032 34.6122 151.622 34.9166C152.231 35.221 152.887 35.4779 153.591 35.6872C154.295 35.8965 154.999 36.0011 155.703 36.0011C156.521 36.0011 157.311 35.8394 158.072 35.5159C158.852 35.1925 159.49 34.7073 159.984 34.0604C160.498 33.3944 160.755 32.5573 160.755 31.5488C160.755 30.5785 160.517 29.7984 160.041 29.2086C159.566 28.5997 158.957 28.105 158.215 27.7245C157.473 27.3439 156.683 27.0014 155.846 26.697C155.199 26.4497 154.552 26.1928 153.905 25.9264C153.258 25.641 152.668 25.3081 152.136 24.9275C151.603 24.528 151.175 24.0523 150.851 23.5005C150.547 22.9488 150.395 22.2828 150.395 21.5027C150.395 20.5324 150.642 19.6857 151.137 18.9626C151.631 18.2396 152.297 17.6783 153.135 17.2788C153.991 16.8602 154.961 16.6414 156.046 16.6224C156.997 16.6224 157.958 16.746 158.928 16.9934C159.918 17.2407 160.774 17.5547 161.497 17.9352L160.955 19.0197ZM167.406 37V16.2799H167.435L177.424 30.4643L176.824 30.3787L186.785 16.2799H186.814V37H185.444V19.5049L185.558 20.1899L177.11 32.0911H177.053L168.548 20.1899L168.776 19.562V37H167.406ZM193.271 16.7365H205.771V18.0779H194.669V26.1262H204.658V27.4676H194.669V35.6586H206.171V37H193.271V16.7365ZM209.872 16.7365H223.143V18.0779H217.178V37H215.78V18.0779H209.872V16.7365ZM227.97 16.7365H229.369V37H227.97V16.7365ZM250.386 35.6586C249.948 35.925 249.444 36.1819 248.873 36.4292C248.302 36.6766 247.674 36.8668 246.989 37C246.304 37.1522 245.562 37.2283 244.763 37.2283C243.222 37.2283 241.823 36.962 240.568 36.4292C239.312 35.8774 238.237 35.1354 237.343 34.2031C236.448 33.2517 235.754 32.1672 235.259 30.9495C234.784 29.7128 234.546 28.3999 234.546 27.011C234.546 25.5269 234.803 24.1474 235.316 22.8726C235.83 21.5979 236.553 20.4848 237.485 19.5334C238.418 18.5821 239.502 17.8401 240.739 17.3073C241.976 16.7746 243.317 16.5082 244.763 16.5082C245.829 16.5082 246.828 16.6509 247.76 16.9363C248.692 17.2217 249.539 17.5927 250.3 18.0494L249.701 19.3337C249.035 18.9151 248.283 18.5631 247.446 18.2777C246.609 17.9923 245.724 17.8496 244.792 17.8496C243.593 17.8496 242.461 18.0874 241.395 18.5631C240.33 19.0197 239.388 19.6666 238.57 20.5038C237.771 21.322 237.143 22.2828 236.686 23.3864C236.23 24.4899 236.001 25.6791 236.001 26.9539C236.001 28.1716 236.201 29.3227 236.601 30.4072C237.019 31.4918 237.609 32.4431 238.37 33.2613C239.15 34.0794 240.083 34.7263 241.167 35.202C242.252 35.6586 243.46 35.8869 244.792 35.8869C245.781 35.8869 246.685 35.7538 247.503 35.4874C248.34 35.202 249.082 34.85 249.729 34.4314L250.386 35.6586ZM265.695 19.0197C265.105 18.7343 264.382 18.4679 263.526 18.2206C262.669 17.9733 261.813 17.8496 260.957 17.8496C259.625 17.8496 258.56 18.1825 257.76 18.8485C256.961 19.5144 256.562 20.3516 256.562 21.36C256.562 22.1211 256.79 22.7585 257.247 23.2722C257.703 23.7669 258.303 24.195 259.045 24.5565C259.787 24.899 260.576 25.232 261.414 25.5554C262.08 25.8028 262.736 26.0787 263.383 26.3831C264.049 26.6875 264.648 27.0585 265.181 27.4961C265.714 27.9338 266.132 28.476 266.437 29.1229C266.76 29.7698 266.922 30.569 266.922 31.5203C266.922 32.6429 266.655 33.6418 266.123 34.517C265.59 35.3732 264.848 36.0392 263.897 36.5148C262.945 36.9905 261.842 37.2283 260.586 37.2283C259.578 37.2283 258.655 37.1047 257.818 36.8573C256.999 36.61 256.276 36.3246 255.649 36.0011C255.04 35.6586 254.554 35.3732 254.193 35.1449L254.849 34.0033C255.268 34.3077 255.772 34.6122 256.362 34.9166C256.971 35.221 257.627 35.4779 258.331 35.6872C259.035 35.8965 259.739 36.0011 260.443 36.0011C261.261 36.0011 262.051 35.8394 262.812 35.5159C263.592 35.1925 264.23 34.7073 264.724 34.0604C265.238 33.3944 265.495 32.5573 265.495 31.5488C265.495 30.5785 265.257 29.7984 264.781 29.2086C264.306 28.5997 263.697 28.105 262.955 27.7245C262.213 27.3439 261.423 27.0014 260.586 26.697C259.939 26.4497 259.292 26.1928 258.645 25.9264C257.998 25.641 257.408 25.3081 256.876 24.9275C256.343 24.528 255.915 24.0523 255.591 23.5005C255.287 22.9488 255.135 22.2828 255.135 21.5027C255.135 20.5324 255.382 19.6857 255.877 18.9626C256.372 18.2396 257.037 17.6783 257.875 17.2788C258.731 16.8602 259.701 16.6414 260.786 16.6224C261.737 16.6224 262.698 16.746 263.668 16.9934C264.658 17.2407 265.514 17.5547 266.237 17.9352L265.695 19.0197Z" fill="#22223B"/>
</g>
<defs>
<clipPath id="clip0_853_219">
<rect width="285" height="59.9004" fill="white"/>
</clipPath>
</defs>
</svg>
