<svg width="253" height="54" viewBox="0 0 253 54" fill="none" xmlns="http://www.w3.org/2000/svg">
<path d="M247.583 7.46436V8.6867H246.193V12.4056H244.874V8.6867H243.484V7.46436H247.583Z" fill="#FFE3C2"/>
<path d="M253 7.39062V12.4282H251.68V9.98354L250.714 11.1318H250.319L249.352 9.98354V12.4282H248.033V7.39062H248.499L250.516 9.539L252.534 7.39062H253Z" fill="#FFE3C2"/>
<path fill-rule="evenodd" clip-rule="evenodd" d="M17.4499 32.6562L17.4344 44.8899L20.0208 44.8933L20.0363 32.6025L24.7544 43.9515L27.1426 42.9589L22.457 31.6878L31.0777 40.3297L32.9088 38.5034L24.2511 29.8243L35.5745 34.523L36.5655 32.1346L25.2411 27.4352H37.5022V24.849H25.2705L36.5763 20.1802L35.5887 17.7899L24.3314 22.4388L32.9877 13.8717L31.1686 12.0336L22.4046 20.7071L27.1275 9.31756L24.7381 8.32707L20.0528 19.6267L20.0683 7.39439L17.4819 7.39111L17.4663 19.6829L12.7478 8.33263L10.3596 9.32527L15.0448 20.5955L6.42465 11.9542L4.5935 13.7806L13.2515 22.4598L1.928 17.7608L0.936606 20.1494L12.2618 24.849H0V27.4352H12.2327L0.926477 32.1042L1.91373 34.4945L13.1706 29.8458L4.51445 38.4125L6.33386 40.2508L15.0973 31.5777L10.3749 42.9667L12.764 43.9571L17.4499 32.6562Z" fill="#FFE3C2"/>
<path d="M62.9008 31.7332C62.5968 31.9359 62.2252 32.1301 61.7861 32.3159C61.3638 32.4848 60.9078 32.6369 60.4179 32.772C59.9281 32.9071 59.4214 33.0084 58.8978 33.076C58.3911 33.1605 57.9097 33.2027 57.4537 33.2027C56.0349 33.2027 54.7512 32.9747 53.6027 32.5186C52.471 32.0457 51.4998 31.4039 50.6891 30.5931C49.8783 29.7655 49.2534 28.8112 48.8142 27.7302C48.392 26.6323 48.1808 25.45 48.1808 24.1832C48.1808 22.8151 48.4173 21.5567 48.8902 20.4082C49.38 19.2596 50.0472 18.2716 50.8917 17.4439C51.7363 16.5994 52.7159 15.9491 53.8307 15.4931C54.9454 15.037 56.1278 14.809 57.3777 14.809C58.3235 14.809 59.2103 14.9273 60.0379 15.1637C60.8824 15.4002 61.6425 15.7211 62.3181 16.1265L61.8621 17.2412C61.4736 17.0048 61.0344 16.8021 60.5446 16.6332C60.0548 16.4474 59.5481 16.3038 59.0245 16.2025C58.5178 16.1011 58.0111 16.0505 57.5043 16.0505C56.3558 16.0505 55.2917 16.2532 54.3121 16.6585C53.3324 17.0639 52.4794 17.6297 51.7532 18.356C51.0269 19.0823 50.461 19.9353 50.0557 20.9149C49.6503 21.8946 49.4476 22.9586 49.4476 24.1072C49.4476 25.222 49.6334 26.2607 50.005 27.2235C50.3935 28.1693 50.934 29.0054 51.6265 29.7317C52.3359 30.4411 53.1804 30.9985 54.16 31.4039C55.1397 31.7923 56.2291 31.9866 57.4283 31.9866C58.1377 31.9866 58.8809 31.9021 59.6579 31.7332C60.4348 31.5643 61.102 31.3194 61.6594 30.9985V26.0074H57.6057V24.8166H62.9008V31.7332ZM68.1 33V15.0117H72.5337C74.2734 15.0117 75.7513 15.2904 76.9674 15.8478C78.2004 16.3883 79.197 17.1061 79.957 18.0013C80.7171 18.8965 81.2745 19.8761 81.6292 20.9402C81.9839 22.0043 82.1612 23.06 82.1612 24.1072C82.1612 25.4753 81.9248 26.7083 81.4518 27.8062C80.9789 28.8872 80.3286 29.8162 79.501 30.5931C78.6903 31.3701 77.7613 31.9697 76.7141 32.3919C75.6669 32.7973 74.5606 33 73.3951 33H68.1ZM69.3414 31.8092H73.0658C74.1467 31.8092 75.1602 31.6319 76.106 31.2772C77.0519 30.9225 77.8795 30.4073 78.5889 29.7317C79.3152 29.0561 79.881 28.2453 80.2864 27.2995C80.6918 26.3367 80.8945 25.2473 80.8945 24.0312C80.8945 23.0009 80.7171 22.0212 80.3624 21.0923C80.0246 20.1464 79.5095 19.3103 78.8169 18.584C78.1244 17.8577 77.2715 17.2835 76.258 16.8612C75.2446 16.4389 74.0623 16.2278 72.7111 16.2278H69.3414V31.8092ZM107.445 31.8092C107.057 32.0457 106.609 32.2737 106.103 32.4933C105.596 32.7129 105.039 32.8818 104.43 33C103.822 33.1351 103.164 33.2027 102.454 33.2027C101.086 33.2027 99.8447 32.9662 98.73 32.4933C97.6152 32.0035 96.6609 31.3447 95.867 30.5171C95.0732 29.6726 94.4567 28.7098 94.0175 27.6288C93.5953 26.531 93.3841 25.3655 93.3841 24.1325C93.3841 22.8151 93.6122 21.5905 94.0682 20.4589C94.5242 19.3272 95.1661 18.3391 95.9937 17.4946C96.8213 16.6501 97.7841 15.9914 98.882 15.5184C99.9798 15.0455 101.171 14.809 102.454 14.809C103.4 14.809 104.287 14.9357 105.115 15.1891C105.942 15.4424 106.694 15.7718 107.369 16.1771L106.837 17.3172C106.246 16.9457 105.579 16.6332 104.836 16.3798C104.093 16.1265 103.307 15.9998 102.48 15.9998C101.416 15.9998 100.411 16.2109 99.4647 16.6332C98.5188 17.0386 97.6827 17.6128 96.9565 18.356C96.2471 19.0823 95.6897 19.9353 95.2843 20.9149C94.8789 21.8946 94.6763 22.9502 94.6763 24.0819C94.6763 25.1628 94.8536 26.1847 95.2083 27.1475C95.5799 28.1102 96.1035 28.9547 96.7791 29.681C97.4716 30.4073 98.2992 30.9816 99.262 31.4039C100.225 31.8092 101.297 32.0119 102.48 32.0119C103.358 32.0119 104.16 31.8937 104.887 31.6572C105.63 31.4039 106.288 31.0914 106.863 30.7198L107.445 31.8092ZM110.901 24.0312C110.901 22.7644 111.138 21.5821 111.611 20.4842C112.084 19.3694 112.742 18.3898 113.587 17.5453C114.431 16.6839 115.403 16.0167 116.501 15.5438C117.615 15.0539 118.806 14.809 120.073 14.809C121.34 14.809 122.53 15.0539 123.645 15.5438C124.76 16.0167 125.74 16.6839 126.584 17.5453C127.429 18.3898 128.087 19.3694 128.56 20.4842C129.05 21.5821 129.295 22.7644 129.295 24.0312C129.295 25.298 129.05 26.4887 128.56 27.6035C128.087 28.7014 127.429 29.6726 126.584 30.5171C125.74 31.3616 124.76 32.0204 123.645 32.4933C122.53 32.9662 121.34 33.2027 120.073 33.2027C118.806 33.2027 117.615 32.9747 116.501 32.5186C115.403 32.0626 114.431 31.4207 113.587 30.5931C112.742 29.7655 112.084 28.7943 111.611 27.6795C111.138 26.5648 110.901 25.3486 110.901 24.0312ZM112.168 24.0565C112.168 25.1544 112.371 26.1847 112.776 27.1475C113.182 28.1102 113.747 28.9547 114.474 29.681C115.2 30.4073 116.036 30.9816 116.982 31.4039C117.945 31.8092 118.967 32.0119 120.048 32.0119C121.162 32.0119 122.201 31.8092 123.164 31.4039C124.127 30.9816 124.971 30.4073 125.697 29.681C126.424 28.9547 126.989 28.1102 127.395 27.1475C127.817 26.1847 128.028 25.146 128.028 24.0312C128.028 22.9333 127.817 21.903 127.395 20.9402C126.989 19.9606 126.424 19.1076 125.697 18.3813C124.971 17.6382 124.127 17.0554 123.164 16.6332C122.201 16.2109 121.171 15.9998 120.073 15.9998C118.958 15.9998 117.919 16.2194 116.957 16.6585C115.994 17.0808 115.149 17.6635 114.423 18.4067C113.714 19.1499 113.156 20.0113 112.751 20.9909C112.362 21.9537 112.168 22.9755 112.168 24.0565ZM142.883 17.0386C142.359 16.7852 141.717 16.5487 140.957 16.3292C140.197 16.1096 139.437 15.9998 138.677 15.9998C137.495 15.9998 136.549 16.2954 135.839 16.8865C135.13 17.4777 134.775 18.2209 134.775 19.1161C134.775 19.7917 134.978 20.3575 135.383 20.8136C135.789 21.2527 136.321 21.6328 136.979 21.9537C137.638 22.2577 138.339 22.5533 139.082 22.8404C139.673 23.06 140.256 23.3049 140.83 23.5751C141.422 23.8454 141.954 24.1748 142.427 24.5632C142.9 24.9517 143.271 25.4331 143.541 26.0074C143.828 26.5816 143.972 27.291 143.972 28.1356C143.972 29.1321 143.736 30.0188 143.263 30.7958C142.79 31.5559 142.131 32.147 141.286 32.5693C140.442 32.9916 139.462 33.2027 138.348 33.2027C137.452 33.2027 136.633 33.0929 135.89 32.8733C135.164 32.6537 134.522 32.4004 133.964 32.1133C133.424 31.8092 132.993 31.5559 132.672 31.3532L133.255 30.3398C133.627 30.61 134.074 30.8803 134.598 31.1505C135.138 31.4207 135.721 31.6488 136.346 31.8346C136.971 32.0204 137.596 32.1133 138.221 32.1133C138.947 32.1133 139.648 31.9697 140.324 31.6825C141.016 31.3954 141.582 30.9647 142.021 30.3904C142.477 29.7993 142.705 29.0561 142.705 28.1609C142.705 27.2995 142.494 26.607 142.072 26.0834C141.65 25.5429 141.109 25.1037 140.45 24.7659C139.792 24.4281 139.091 24.1241 138.348 23.8538C137.773 23.6343 137.199 23.4062 136.625 23.1698C136.05 22.9164 135.527 22.6208 135.054 22.283C134.581 21.9283 134.201 21.5061 133.914 21.0162C133.644 20.5264 133.508 19.9353 133.508 19.2428C133.508 18.3813 133.728 17.6297 134.167 16.9879C134.606 16.3461 135.197 15.8478 135.941 15.4931C136.701 15.1215 137.562 14.9273 138.525 14.9104C139.369 14.9104 140.222 15.0202 141.084 15.2397C141.962 15.4593 142.722 15.738 143.364 16.0758L142.883 17.0386ZM148.61 33V14.6063H148.635L157.503 27.1981L156.971 27.1221L165.813 14.6063H165.838V33H164.622V17.4693L164.723 18.0773L157.224 28.6423H157.173L149.623 18.0773L149.826 17.5199V33H148.61ZM171.57 15.0117H182.667V16.2025H172.812V23.3471H181.679V24.5379H172.812V31.8092H183.022V33H171.57V15.0117ZM186.307 15.0117H198.088V16.2025H192.793V33H191.552V16.2025H186.307V15.0117ZM202.374 15.0117H203.615V33H202.374V15.0117ZM222.272 31.8092C221.884 32.0457 221.436 32.2737 220.929 32.4933C220.423 32.7129 219.865 32.8818 219.257 33C218.649 33.1351 217.99 33.2027 217.281 33.2027C215.913 33.2027 214.672 32.9662 213.557 32.4933C212.442 32.0035 211.488 31.3447 210.694 30.5171C209.9 29.6726 209.283 28.7098 208.844 27.6288C208.422 26.531 208.211 25.3655 208.211 24.1325C208.211 22.8151 208.439 21.5905 208.895 20.4589C209.351 19.3272 209.993 18.3391 210.82 17.4946C211.648 16.6501 212.611 15.9914 213.709 15.5184C214.807 15.0455 215.997 14.809 217.281 14.809C218.227 14.809 219.114 14.9357 219.941 15.1891C220.769 15.4424 221.521 15.7718 222.196 16.1771L221.664 17.3172C221.073 16.9457 220.406 16.6332 219.663 16.3798C218.919 16.1265 218.134 15.9998 217.306 15.9998C216.242 15.9998 215.237 16.2109 214.291 16.6332C213.346 17.0386 212.51 17.6128 211.783 18.356C211.074 19.0823 210.516 19.9353 210.111 20.9149C209.706 21.8946 209.503 22.9502 209.503 24.0819C209.503 25.1628 209.68 26.1847 210.035 27.1475C210.407 28.1102 210.93 28.9547 211.606 29.681C212.298 30.4073 213.126 30.9816 214.089 31.4039C215.052 31.8092 216.124 32.0119 217.306 32.0119C218.185 32.0119 218.987 31.8937 219.713 31.6572C220.456 31.4039 221.115 31.0914 221.689 30.7198L222.272 31.8092ZM235.862 17.0386C235.339 16.7852 234.697 16.5487 233.937 16.3292C233.177 16.1096 232.417 15.9998 231.657 15.9998C230.474 15.9998 229.528 16.2954 228.819 16.8865C228.11 17.4777 227.755 18.2209 227.755 19.1161C227.755 19.7917 227.958 20.3575 228.363 20.8136C228.768 21.2527 229.3 21.6328 229.959 21.9537C230.618 22.2577 231.319 22.5533 232.062 22.8404C232.653 23.06 233.236 23.3049 233.81 23.5751C234.401 23.8454 234.933 24.1748 235.406 24.5632C235.879 24.9517 236.251 25.4331 236.521 26.0074C236.808 26.5816 236.952 27.291 236.952 28.1356C236.952 29.1321 236.715 30.0188 236.242 30.7958C235.769 31.5559 235.111 32.147 234.266 32.5693C233.422 32.9916 232.442 33.2027 231.327 33.2027C230.432 33.2027 229.613 33.0929 228.87 32.8733C228.143 32.6537 227.502 32.4004 226.944 32.1133C226.404 31.8092 225.973 31.5559 225.652 31.3532L226.235 30.3398C226.606 30.61 227.054 30.8803 227.578 31.1505C228.118 31.4207 228.701 31.6488 229.326 31.8346C229.951 32.0204 230.576 32.1133 231.201 32.1133C231.927 32.1133 232.628 31.9697 233.303 31.6825C233.996 31.3954 234.562 30.9647 235.001 30.3904C235.457 29.7993 235.685 29.0561 235.685 28.1609C235.685 27.2995 235.474 26.607 235.052 26.0834C234.629 25.5429 234.089 25.1037 233.43 24.7659C232.771 24.4281 232.07 24.1241 231.327 23.8538C230.753 23.6343 230.179 23.4062 229.604 23.1698C229.03 22.9164 228.507 22.6208 228.034 22.283C227.561 21.9283 227.181 21.5061 226.894 21.0162C226.623 20.5264 226.488 19.9353 226.488 19.2428C226.488 18.3813 226.708 17.6297 227.147 16.9879C227.586 16.3461 228.177 15.8478 228.92 15.4931C229.68 15.1215 230.542 14.9273 231.505 14.9104C232.349 14.9104 233.202 15.0202 234.064 15.2397C234.942 15.4593 235.702 15.738 236.344 16.0758L235.862 17.0386Z" fill="#FFE3C2"/>
</svg>
